<?xml version="1.0" encoding="iso-8859-1"?>
<!-- Generator: Adobe Illustrator 19.0.0, SVG Export Plug-In . SVG Version: 6.00 Build 0)  -->
<svg version="1.1" id="Capa_1" xmlns="http://www.w3.org/2000/svg" xmlns:xlink="http://www.w3.org/1999/xlink" x="0px" y="0px"
	 viewBox="0 0 512.001 512.001" style="enable-background:new 0 0 512.001 512.001;" xml:space="preserve">
<g>
	<path style="fill:#D6EDFF;" d="M497.99,14.017c-0.317,5.374,23.279,89.903-42.446,155.627L342.363,56.463
		C409.267-10.442,491.378,14.397,497.99,14.017z"/>
	<path style="fill:#D6EDFF;" d="M123.002,388.815c31.251,31.261,31.251,81.93,0,113.182l-28.29-28.29
		c-15.636-15.636-15.636-40.965,0-56.591c-15.636,15.626-40.965,15.626-56.591,0l-28.3-28.3
		C41.072,357.563,91.751,357.563,123.002,388.815z"/>
</g>
<path d="M434.577,63.535c3.901-3.901,3.901-10.234,0-14.145c-3.911-3.911-10.244-3.911-14.155,0c-3.901,3.911-3.901,10.244,0,14.145
	C424.333,67.447,430.665,67.447,434.577,63.535z"/>
<path d="M448.72,176.718c3.908,3.906,10.24,3.905,14.148,0c43.164-43.164,55.813-99.586,45.864-159.772
	c-0.723-4.389-0.449-7.029-3.41-9.996c-1.881-1.885-4.429-2.936-7.075-2.937c-0.685-0.076-2.407-0.369-3.939-0.63
	C427.722-7.954,375.273,9.657,335.539,49.388c-3.906,3.906-3.906,10.241,0,14.148l49.515,49.515l-39.511,39.484l-49.596-49.596
	c-3.907-3.905-10.24-3.905-14.148,0c-3.906,3.906-3.906,10.241,0,14.148l49.591,49.591l-30.307,30.286l-63.728-63.724
	c-3.907-3.905-10.24-3.905-14.148,0c-3.906,3.906-3.906,10.241,0,14.148l63.723,63.718l-30.304,30.283l-49.563-49.559
	c-3.907-3.905-10.24-3.905-14.148,0c-3.906,3.906-3.906,10.241,0,14.148l49.558,49.554l-30.303,30.283l-35.397-35.401
	c-3.906-3.906-10.241-3.905-14.148-0.002c-3.906,3.906-3.907,10.24-0.002,14.148l35.394,35.398l-30.307,30.286l-21.24-21.24
	c-3.907-3.905-10.24-3.905-14.148,0c-3.906,3.906-3.906,10.241,0,14.148l21.235,21.235l-30.704,30.683
	c-35.242-28.264-86.968-26.219-119.858,6.671c-3.906,3.906-3.906,10.241,0,14.148l28.3,28.3
	c11.546,11.544,27.377,16.255,42.43,14.125c-2.168,15.336,2.706,31.01,14.16,42.465l28.29,28.29c3.908,3.906,10.24,3.905,14.148,0
	c32.707-32.708,34.922-84.528,6.672-119.85l30.708-30.687l21.209,21.209c3.908,3.906,10.24,3.905,14.148,0
	c3.906-3.906,3.906-10.241,0-14.148l-21.204-21.204l30.306-30.285l35.342,35.346c3.908,3.906,10.24,3.905,14.148,0
	c3.906-3.906,3.906-10.241,0-14.148l-35.337-35.341l30.305-30.284l49.476,49.472c3.904,3.906,10.241,3.906,14.147-0.001
	c3.906-3.906,3.905-10.241-0.001-14.147l-49.47-49.466l30.304-30.283l63.611,63.606c3.904,3.906,10.241,3.906,14.147-0.001
	c3.906-3.906,3.905-10.241-0.001-14.147l-63.604-63.6l30.307-30.286l49.442,49.442c3.908,3.906,10.24,3.905,14.148,0
	c3.906-3.906,3.906-10.241,0-14.148l-49.437-49.437l39.511-39.483L448.72,176.718z M122.748,487.345l-20.713-20.714
	c-11.731-11.729-11.744-30.707-0.003-42.441c3.908-3.906,3.91-10.239,0.005-14.147c-3.905-3.907-10.239-3.911-14.147-0.005
	c-11.707,11.698-30.747,11.698-42.446,0.002l-20.728-20.728c27.188-20.418,66.314-18.573,91.461,6.575
	C141.076,420.794,143.267,459.941,122.748,487.345z M489.424,22.847c7.796,48.628-1.052,95.171-33.852,132.426
	c-4.316-4.316-94.293-94.292-98.599-98.598C409.106,10.516,467.701,19.181,489.424,22.847z"/>
<g>
</g>
<g>
</g>
<g>
</g>
<g>
</g>
<g>
</g>
<g>
</g>
<g>
</g>
<g>
</g>
<g>
</g>
<g>
</g>
<g>
</g>
<g>
</g>
<g>
</g>
<g>
</g>
<g>
</g>
</svg>
