<?xml version="1.0" encoding="iso-8859-1"?>
<!-- Generator: Adobe Illustrator 16.0.0, SVG Export Plug-In . SVG Version: 6.00 Build 0)  -->
<!DOCTYPE svg PUBLIC "-//W3C//DTD SVG 1.1//EN" "http://www.w3.org/Graphics/SVG/1.1/DTD/svg11.dtd">
<svg xmlns="http://www.w3.org/2000/svg" xmlns:xlink="http://www.w3.org/1999/xlink" version="1.1" id="Capa_1" x="0px" y="0px" width="512px" height="512px" viewBox="0 0 40.299 40.299" style="enable-background:new 0 0 40.299 40.299;" xml:space="preserve">
<g>
	<path d="M21.996,32.597c0,0,0.479-1.614,1.631-2.009c-0.193-0.056-0.387-0.088-0.57-0.088c-0.941,0-1.538,0.791-1.854,1.402   c-0.385-0.343-0.889-0.744-1.425-1.027c0.154-0.121,0.326-0.224,0.519-0.287c-0.191-0.056-0.385-0.088-0.57-0.088   c-0.208,0-0.396,0.041-0.57,0.108c-0.217-0.069-0.432-0.108-0.641-0.108c-1.527,0-2.146,2.097-2.146,2.097s0.619,2.093,2.146,2.093   c0.209,0,0.424-0.04,0.641-0.105c0.174,0.064,0.362,0.105,0.57,0.105c0.186,0,0.379-0.03,0.57-0.087   c-0.191-0.063-0.363-0.167-0.519-0.287c0.536-0.284,1.04-0.687,1.425-1.028c0.317,0.611,0.913,1.402,1.854,1.402   c0.187,0,0.377-0.03,0.57-0.087C22.473,34.213,21.996,32.597,21.996,32.597z M17.529,32.597c-0.191,0-0.348-0.2-0.348-0.446   s0.154-0.445,0.348-0.445c0.194,0,0.348,0.199,0.348,0.445S17.721,32.597,17.529,32.597z M13.82,26.375c0,0,0.479-1.615,1.631-2.01   c-0.193-0.055-0.385-0.087-0.572-0.087c-0.939,0-1.535,0.792-1.854,1.403c-0.383-0.346-0.888-0.744-1.424-1.029   c0.155-0.12,0.325-0.222,0.521-0.287c-0.193-0.055-0.386-0.087-0.572-0.087c-0.207,0-0.396,0.041-0.57,0.106   c-0.216-0.066-0.432-0.106-0.641-0.106c-1.527,0-2.146,2.097-2.146,2.097s0.619,2.094,2.146,2.094c0.209,0,0.425-0.041,0.641-0.106   c0.174,0.063,0.363,0.106,0.57,0.106c0.188,0,0.379-0.031,0.572-0.088c-0.193-0.064-0.365-0.166-0.521-0.287   c0.536-0.284,1.041-0.687,1.424-1.028c0.319,0.61,0.915,1.403,1.854,1.403c0.188,0,0.379-0.031,0.572-0.088   C14.296,27.987,13.82,26.375,13.82,26.375z M9.353,26.375c-0.191,0-0.348-0.199-0.348-0.445s0.156-0.447,0.348-0.447   c0.193,0,0.35,0.201,0.35,0.447S9.546,26.375,9.353,26.375z M21.996,26.375c0,0,0.479-1.615,1.631-2.01   c-0.193-0.055-0.387-0.087-0.57-0.087c-0.941,0-1.538,0.792-1.854,1.403c-0.385-0.346-0.889-0.744-1.425-1.029   c0.154-0.12,0.326-0.222,0.519-0.287c-0.191-0.055-0.385-0.087-0.57-0.087c-0.208,0-0.396,0.041-0.57,0.106   c-0.217-0.066-0.432-0.106-0.641-0.106c-1.527,0-2.146,2.097-2.146,2.097s0.619,2.094,2.146,2.094c0.209,0,0.424-0.041,0.641-0.106   c0.174,0.063,0.362,0.106,0.57,0.106c0.186,0,0.379-0.031,0.57-0.088c-0.191-0.064-0.363-0.166-0.519-0.287   c0.536-0.284,1.04-0.687,1.425-1.028c0.317,0.61,0.913,1.403,1.854,1.403c0.187,0,0.377-0.031,0.57-0.088   C22.473,27.987,21.996,26.375,21.996,26.375z M17.529,26.375c-0.191,0-0.348-0.199-0.348-0.445s0.154-0.447,0.348-0.447   c0.194,0,0.348,0.201,0.348,0.447S17.721,26.375,17.529,26.375z M30.169,26.375c0,0,0.479-1.615,1.631-2.01   c-0.192-0.055-0.385-0.087-0.571-0.087c-0.939,0-1.535,0.792-1.854,1.403c-0.386-0.346-0.89-0.744-1.427-1.029   c0.156-0.12,0.328-0.222,0.521-0.287c-0.19-0.055-0.385-0.087-0.569-0.087c-0.207,0-0.396,0.041-0.57,0.106   c-0.217-0.066-0.432-0.106-0.641-0.106c-1.527,0-2.146,2.097-2.146,2.097s0.619,2.094,2.146,2.094c0.209,0,0.424-0.041,0.641-0.106   c0.176,0.063,0.363,0.106,0.57,0.106c0.188,0,0.379-0.031,0.569-0.088c-0.19-0.064-0.362-0.166-0.521-0.287   c0.537-0.284,1.041-0.687,1.427-1.028c0.317,0.61,0.914,1.403,1.854,1.403c0.188,0,0.379-0.031,0.571-0.088   C30.648,27.987,30.169,26.375,30.169,26.375z M25.705,26.375c-0.191,0-0.348-0.199-0.348-0.445s0.153-0.447,0.348-0.447   c0.191,0,0.348,0.201,0.348,0.447S25.896,26.375,25.705,26.375z M13.82,20.151c0,0,0.479-1.615,1.631-2.009   c-0.193-0.056-0.385-0.087-0.572-0.087c-0.939,0-1.535,0.791-1.854,1.402c-0.383-0.344-0.888-0.744-1.424-1.029   c0.155-0.119,0.325-0.223,0.521-0.286c-0.193-0.056-0.386-0.087-0.572-0.087c-0.207,0-0.396,0.041-0.57,0.106   c-0.216-0.067-0.432-0.106-0.641-0.106c-1.527,0-2.146,2.096-2.146,2.096s0.619,2.092,2.146,2.092c0.209,0,0.425-0.04,0.641-0.104   c0.174,0.063,0.363,0.104,0.57,0.104c0.188,0,0.379-0.028,0.572-0.087c-0.193-0.062-0.365-0.167-0.521-0.287   c0.536-0.283,1.041-0.686,1.424-1.027c0.319,0.61,0.915,1.401,1.854,1.401c0.188,0,0.379-0.028,0.572-0.087   C14.296,21.765,13.82,20.151,13.82,20.151z M9.353,20.151c-0.191,0-0.348-0.201-0.348-0.446c0-0.247,0.156-0.446,0.348-0.446   c0.193,0,0.35,0.199,0.35,0.446C9.703,19.95,9.546,20.151,9.353,20.151z M5.625,20.151c0,0,0.479-1.615,1.631-2.009   c-0.19-0.056-0.383-0.087-0.569-0.087c-0.94,0-1.537,0.791-1.854,1.402c-0.385-0.344-0.89-0.744-1.425-1.029   c0.154-0.119,0.326-0.223,0.519-0.286c-0.191-0.056-0.383-0.087-0.571-0.087c-0.206,0-0.396,0.041-0.569,0.106   c-0.217-0.067-0.432-0.106-0.641-0.106C0.619,18.056,0,20.151,0,20.151s0.619,2.092,2.146,2.092c0.209,0,0.424-0.04,0.641-0.104   c0.172,0.063,0.361,0.104,0.567,0.104c0.188,0,0.38-0.028,0.571-0.087c-0.191-0.062-0.363-0.167-0.519-0.287   c0.535-0.283,1.04-0.686,1.425-1.027c0.317,0.61,0.914,1.401,1.854,1.401c0.187,0,0.379-0.028,0.569-0.087   C6.103,21.765,5.625,20.151,5.625,20.151z M1.16,20.151c-0.193,0-0.348-0.201-0.348-0.446c0-0.247,0.154-0.446,0.348-0.446   c0.192,0,0.348,0.199,0.348,0.446C1.508,19.95,1.352,20.151,1.16,20.151z M21.996,20.151c0,0,0.479-1.615,1.631-2.009   c-0.193-0.056-0.387-0.087-0.57-0.087c-0.941,0-1.538,0.791-1.854,1.402c-0.385-0.344-0.889-0.744-1.425-1.029   c0.154-0.119,0.326-0.223,0.519-0.286c-0.191-0.056-0.385-0.087-0.57-0.087c-0.208,0-0.396,0.041-0.57,0.106   c-0.217-0.067-0.432-0.106-0.641-0.106c-1.527,0-2.146,2.096-2.146,2.096s0.619,2.092,2.146,2.092c0.209,0,0.424-0.04,0.641-0.104   c0.174,0.063,0.362,0.104,0.57,0.104c0.186,0,0.379-0.028,0.57-0.087c-0.191-0.062-0.363-0.167-0.519-0.287   c0.536-0.283,1.04-0.686,1.425-1.027c0.317,0.61,0.913,1.401,1.854,1.401c0.187,0,0.377-0.028,0.57-0.087   C22.473,21.765,21.996,20.151,21.996,20.151z M17.529,20.151c-0.191,0-0.348-0.201-0.348-0.446c0-0.247,0.154-0.446,0.348-0.446   c0.194,0,0.348,0.199,0.348,0.446C17.877,19.95,17.721,20.151,17.529,20.151z M30.169,20.151c0,0,0.479-1.615,1.631-2.009   c-0.192-0.056-0.385-0.087-0.571-0.087c-0.939,0-1.535,0.791-1.854,1.402c-0.386-0.344-0.89-0.744-1.427-1.029   c0.156-0.119,0.328-0.223,0.521-0.286c-0.19-0.056-0.385-0.087-0.569-0.087c-0.207,0-0.396,0.041-0.57,0.106   c-0.217-0.067-0.432-0.106-0.641-0.106c-1.527,0-2.146,2.096-2.146,2.096s0.619,2.092,2.146,2.092c0.209,0,0.424-0.04,0.641-0.104   c0.176,0.063,0.363,0.104,0.57,0.104c0.188,0,0.379-0.028,0.569-0.087c-0.19-0.062-0.362-0.167-0.521-0.287   c0.537-0.283,1.041-0.686,1.427-1.027c0.317,0.61,0.914,1.401,1.854,1.401c0.188,0,0.379-0.028,0.571-0.087   C30.648,21.765,30.169,20.151,30.169,20.151z M25.705,20.151c-0.191,0-0.348-0.201-0.348-0.446c0-0.247,0.153-0.446,0.348-0.446   c0.191,0,0.348,0.199,0.348,0.446C26.053,19.95,25.896,20.151,25.705,20.151z M38.668,20.151c0,0,0.479-1.615,1.631-2.009   c-0.191-0.056-0.385-0.087-0.57-0.087c-0.94,0-1.535,0.791-1.854,1.402c-0.384-0.344-0.888-0.744-1.425-1.029   c0.156-0.119,0.326-0.223,0.521-0.286c-0.192-0.056-0.385-0.087-0.571-0.087c-0.207,0-0.396,0.041-0.568,0.106   c-0.217-0.067-0.434-0.106-0.641-0.106c-1.529,0-2.148,2.096-2.148,2.096s0.619,2.092,2.148,2.092c0.207,0,0.424-0.04,0.641-0.104   c0.174,0.063,0.361,0.104,0.568,0.104c0.188,0,0.379-0.028,0.571-0.087c-0.192-0.062-0.362-0.167-0.521-0.287   c0.537-0.283,1.041-0.686,1.425-1.027c0.319,0.61,0.914,1.401,1.854,1.401c0.188,0,0.379-0.028,0.57-0.087   C39.146,21.765,38.668,20.151,38.668,20.151z M34.203,20.151c-0.193,0-0.35-0.201-0.35-0.446c0-0.247,0.155-0.446,0.35-0.446   c0.191,0,0.348,0.199,0.348,0.446C34.551,19.95,34.395,20.151,34.203,20.151z M13.82,13.926c0,0,0.479-1.614,1.631-2.008   c-0.193-0.056-0.385-0.088-0.572-0.088c-0.939,0-1.535,0.793-1.854,1.403c-0.383-0.344-0.888-0.744-1.424-1.028   c0.155-0.121,0.325-0.223,0.521-0.287c-0.193-0.056-0.386-0.088-0.572-0.088c-0.207,0-0.396,0.043-0.57,0.108   c-0.216-0.067-0.432-0.108-0.641-0.108c-1.527,0-2.146,2.096-2.146,2.096s0.619,2.094,2.146,2.094c0.209,0,0.425-0.04,0.641-0.105   c0.174,0.064,0.363,0.105,0.57,0.105c0.188,0,0.379-0.031,0.572-0.087c-0.193-0.065-0.365-0.167-0.521-0.287   c0.536-0.285,1.041-0.687,1.424-1.029c0.319,0.611,0.915,1.403,1.854,1.403c0.188,0,0.379-0.031,0.572-0.087   C14.296,15.542,13.82,13.926,13.82,13.926z M9.353,13.926c-0.191,0-0.348-0.199-0.348-0.445s0.156-0.446,0.348-0.446   c0.193,0,0.35,0.2,0.35,0.446S9.546,13.926,9.353,13.926z M21.996,13.926c0,0,0.479-1.614,1.631-2.008   c-0.193-0.056-0.387-0.088-0.57-0.088c-0.941,0-1.538,0.793-1.854,1.403c-0.385-0.344-0.889-0.744-1.425-1.028   c0.154-0.121,0.326-0.223,0.519-0.287c-0.191-0.056-0.385-0.088-0.57-0.088c-0.208,0-0.396,0.043-0.57,0.108   c-0.217-0.067-0.432-0.108-0.641-0.108c-1.527,0-2.146,2.096-2.146,2.096s0.619,2.094,2.146,2.094c0.209,0,0.424-0.04,0.641-0.105   c0.174,0.064,0.362,0.105,0.57,0.105c0.186,0,0.379-0.031,0.57-0.087c-0.191-0.065-0.363-0.167-0.519-0.287   c0.536-0.285,1.04-0.687,1.425-1.029c0.317,0.611,0.913,1.403,1.854,1.403c0.187,0,0.377-0.031,0.57-0.087   C22.473,15.542,21.996,13.926,21.996,13.926z M17.529,13.926c-0.191,0-0.348-0.199-0.348-0.445s0.154-0.446,0.348-0.446   c0.194,0,0.348,0.2,0.348,0.446S17.721,13.926,17.529,13.926z M30.169,13.926c0,0,0.479-1.614,1.631-2.008   c-0.192-0.056-0.385-0.088-0.571-0.088c-0.939,0-1.535,0.793-1.854,1.403c-0.386-0.344-0.89-0.744-1.427-1.028   c0.156-0.121,0.328-0.223,0.521-0.287c-0.19-0.056-0.385-0.088-0.569-0.088c-0.207,0-0.396,0.043-0.57,0.108   c-0.217-0.067-0.432-0.108-0.641-0.108c-1.527,0-2.146,2.096-2.146,2.096s0.619,2.094,2.146,2.094c0.209,0,0.424-0.04,0.641-0.105   c0.176,0.064,0.363,0.105,0.57,0.105c0.188,0,0.379-0.031,0.569-0.087c-0.19-0.065-0.362-0.167-0.521-0.287   c0.537-0.285,1.041-0.687,1.427-1.029c0.317,0.611,0.914,1.403,1.854,1.403c0.188,0,0.379-0.031,0.571-0.087   C30.648,15.542,30.169,13.926,30.169,13.926z M25.705,13.926c-0.191,0-0.348-0.199-0.348-0.445s0.153-0.446,0.348-0.446   c0.191,0,0.348,0.2,0.348,0.446S25.896,13.926,25.705,13.926z M21.996,7.707c0,0,0.479-1.615,1.631-2.01   c-0.193-0.055-0.387-0.087-0.57-0.087c-0.941,0-1.538,0.791-1.854,1.401c-0.385-0.342-0.889-0.743-1.425-1.027   c0.154-0.12,0.326-0.223,0.519-0.287c-0.191-0.055-0.385-0.087-0.57-0.087c-0.208,0-0.396,0.041-0.57,0.106   c-0.217-0.066-0.432-0.106-0.641-0.106c-1.527,0-2.146,2.097-2.146,2.097s0.619,2.092,2.146,2.092c0.209,0,0.424-0.039,0.641-0.105   c0.174,0.064,0.362,0.105,0.57,0.105c0.186,0,0.379-0.03,0.57-0.088c-0.191-0.063-0.363-0.166-0.519-0.287   c0.536-0.283,1.04-0.686,1.425-1.027c0.317,0.611,0.913,1.402,1.854,1.402c0.187,0,0.377-0.03,0.57-0.088   C22.473,9.318,21.996,7.707,21.996,7.707z M17.529,7.707c-0.191,0-0.348-0.201-0.348-0.447c0-0.246,0.154-0.446,0.348-0.446   c0.194,0,0.348,0.2,0.348,0.446C17.877,7.505,17.721,7.707,17.529,7.707z" fill="#FFDA44"/>
</g>
<g>
</g>
<g>
</g>
<g>
</g>
<g>
</g>
<g>
</g>
<g>
</g>
<g>
</g>
<g>
</g>
<g>
</g>
<g>
</g>
<g>
</g>
<g>
</g>
<g>
</g>
<g>
</g>
<g>
</g>
</svg>
